<svg xmlns="http://www.w3.org/2000/svg" viewBox="0 0 800 500" fill="none">
  <defs>
    <linearGradient id="bg" x1="0" y1="0" x2="1" y2="1">
      <stop offset="0%" stop-color="#0F213A" />
      <stop offset="100%" stop-color="#1E3C72" />
    </linearGradient>
    <linearGradient id="badge" x1="0" y1="0" x2="1" y2="0">
      <stop offset="0%" stop-color="#F5C440" />
      <stop offset="100%" stop-color="#E6A31F" />
    </linearGradient>
  </defs>
  <rect width="800" height="500" fill="url(#bg)" />
  <circle cx="260" cy="230" r="90" fill="#FDFDFD" opacity="0.92" />
  <circle cx="420" cy="240" r="110" fill="#DCE4F5" opacity="0.95" />
  <circle cx="560" cy="230" r="90" fill="#FDFDFD" opacity="0.92" />
  <circle cx="260" cy="220" r="46" fill="#1E3C72" />
  <circle cx="420" cy="220" r="60" fill="#0F213A" />
  <circle cx="560" cy="220" r="46" fill="#1E3C72" />
  <rect x="230" y="260" width="60" height="80" rx="18" fill="#1E3C72" />
  <rect x="380" y="270" width="80" height="90" rx="22" fill="#0F213A" />
  <rect x="530" y="260" width="60" height="80" rx="18" fill="#1E3C72" />
  <rect x="360" y="330" width="120" height="80" rx="28" fill="#F5C440" opacity="0.9" />
  <text x="380" y="382" fill="#0F213A" font-family="'Segoe UI', Arial" font-size="20" font-weight="700">Mock Team</text>
  <rect x="540" y="90" width="140" height="46" rx="12" fill="url(#badge)" />
  <text x="560" y="120" fill="#0F213A" font-family="'Segoe UI', Arial" font-size="18" font-weight="800">Trusted Crew</text>
  <text x="80" y="90" fill="#FDFDFD" font-family="'Segoe UI', Arial" font-size="26" font-weight="700">Mock Team Portrait</text>
  <text x="80" y="120" fill="#E2ECFF" font-family="'Segoe UI', Arial" font-size="16" opacity="0.85">Use as a placeholder for staff visuals</text>
</svg>
