<svg xmlns="http://www.w3.org/2000/svg" viewBox="0 0 800 500" fill="none">
  <defs>
    <linearGradient id="sky" x1="0" y1="0" x2="0" y2="1">
      <stop offset="0%" stop-color="#4FB3FF" />
      <stop offset="100%" stop-color="#0D3B66" />
    </linearGradient>
    <linearGradient id="sea" x1="0" y1="0" x2="1" y2="0">
      <stop offset="0%" stop-color="#00B4D8" />
      <stop offset="100%" stop-color="#0077B6" />
    </linearGradient>
    <linearGradient id="sand" x1="0" y1="0" x2="1" y2="0">
      <stop offset="0%" stop-color="#F2C94C" />
      <stop offset="100%" stop-color="#F29E4C" />
    </linearGradient>
  </defs>
  <rect width="800" height="500" fill="url(#sky)" />
  <circle cx="620" cy="120" r="55" fill="#FFD166" opacity="0.92" />
  <rect y="260" width="800" height="140" fill="url(#sea)" />
  <rect y="360" width="800" height="140" fill="url(#sand)" />
  <path d="M0 340 C120 320 220 360 320 340 C440 320 520 360 640 340 C720 326 760 332 800 340 L800 360 L0 360 Z" fill="#52C7F9" opacity="0.28" />
  <path d="M0 380 C130 360 230 400 330 380 C450 360 520 400 640 380 C720 368 760 372 800 380 L800 400 L0 400 Z" fill="#F7D992" opacity="0.8" />
  <path d="M190 380 L260 330 L330 380 Z" fill="#F25F5C" opacity="0.85" />
  <rect x="230" y="300" width="60" height="80" rx="6" fill="#2D2A32" opacity="0.9" />
  <rect x="245" y="320" width="30" height="32" fill="#F0F4FF" />
  <rect x="250" y="324" width="10" height="24" fill="#B1C7FF" />
  <path d="M520 370 C560 350 600 350 640 370" stroke="#FDFCF7" stroke-width="10" stroke-linecap="round" opacity="0.7" />
  <path d="M540 420 C580 400 620 400 660 420" stroke="#FDFCF7" stroke-width="10" stroke-linecap="round" opacity="0.45" />
  <text x="50" y="100" fill="#FDFCF7" font-family="'Segoe UI', Arial" font-size="28" font-weight="700">Mock Caribbean Beach</text>
  <text x="50" y="135" fill="#FDFCF7" font-family="'Segoe UI', Arial" font-size="16" opacity="0.8">Use as a placeholder for DR property visuals</text>
</svg>
